<svg width="19" height="19" viewBox="0 0 19 19" fill="none" xmlns="http://www.w3.org/2000/svg">
<path d="M9.01007 19C18.0101 14.091 18.0101 7.54602 18.0101 7.54602C18.0101 5.91002 18.0101 1.81897 13.5101 1.00097C9.01007 0.885971 9.01007 4.27301 9.01007 4.27301C9.01007 4.27301 9.01007 1.00097 4.51007 1.00097C0.0100679 1.81897 0.0100681 5.91002 0.0100681 7.54602C0.00806808 7.54602 0.00806808 14.091 9.01007 19ZM5.81012 3.29998C6.44619 3.5039 7.02769 3.84956 7.5108 4.31085C7.99391 4.77213 8.36597 5.33703 8.59906 5.96301C8.85006 6.01801 9.01007 6.06298 9.01007 6.06298L8.69 6.169C8.855 6.546 8.94001 6.78098 8.97601 6.70098V6.36999C8.97557 6.44669 8.98165 6.5233 8.99408 6.59899C8.99408 6.53999 9.00103 6.464 9.00103 6.354V6.62499C9.13103 7.06899 9.84007 3.87797 12.2131 3.30297C16.3701 2.76597 15.813 6.62 15.657 8.289C15.674 8.395 15.386 12.765 9.01104 16.138V16.187C2.76104 12.823 2.37303 8.39598 2.36603 8.28698V8.276L2.26104 8.31097C2.26411 8.12959 2.28351 7.94888 2.31903 7.77099C2.14803 5.94299 2.03502 2.81398 5.80902 3.29998H5.81012Z" fill="#11293B"/>
</svg>
