<svg width="20" height="21" viewBox="0 0 20 21" fill="none" xmlns="http://www.w3.org/2000/svg">
<path d="M11.858 19.3831C11.8582 19.0635 11.9532 18.751 12.1309 18.4854C12.3085 18.2197 12.561 18.0128 12.8563 17.8906C13.1516 17.7685 13.4764 17.7366 13.7899 17.7991C14.1033 17.8615 14.3912 18.0157 14.6171 18.2417C14.843 18.4677 14.9967 18.7556 15.059 19.0691C15.1213 19.3825 15.0893 19.7075 14.9669 20.0027C14.8446 20.2979 14.6374 20.5503 14.3717 20.7278C14.106 20.9053 13.7936 21 13.474 21C13.0455 20.9992 12.6348 20.8285 12.3318 20.5254C12.0289 20.2223 11.8585 19.8116 11.858 19.3831ZM5.39301 19.3831C5.3932 19.0634 5.48816 18.751 5.66589 18.4854C5.84363 18.2197 6.09612 18.0128 6.39148 17.8906C6.68684 17.7685 7.01182 17.7368 7.32526 17.7993C7.63869 17.8619 7.92654 18.0158 8.1524 18.2419C8.37827 18.4681 8.53196 18.7563 8.59412 19.0698C8.65628 19.3833 8.62408 19.7082 8.50159 20.0034C8.37909 20.2986 8.1718 20.5509 7.90594 20.7283C7.64009 20.9057 7.32761 21.0002 7.008 21C6.57974 20.9989 6.16936 20.8282 5.86682 20.5251C5.56428 20.222 5.39425 19.8113 5.39398 19.3831H5.39301ZM6.46997 15.6089C6.18449 15.6084 5.91091 15.4948 5.70905 15.293C5.50718 15.0911 5.39353 14.8175 5.39301 14.532C5.39482 14.4932 5.40188 14.4548 5.414 14.418C5.419 14.396 5.42602 14.376 5.42902 14.354L3.323 5.90698H2.70001V5.74097C2.539 5.84475 2.35251 5.9022 2.16101 5.90698H1.08398C0.798081 5.90698 0.523881 5.79347 0.321716 5.59131C0.119552 5.38914 0.00598145 5.11488 0.00598145 4.82898C0.00598145 4.54308 0.119552 4.26894 0.321716 4.06677C0.523881 3.86461 0.798081 3.75098 1.08398 3.75098H2.16101C2.35261 3.75514 2.53927 3.81264 2.70001 3.91699V3.75098H8.66302C8.64102 3.96598 8.63 4.18799 8.63 4.41199V5C8.63009 5.30313 8.65145 5.60588 8.69397 5.90601H5.44897L6.52399 10.219H11.317C12.402 10.9968 13.704 11.4138 15.039 11.411H15.16L15.01 11.837H14.937C14.8548 11.9976 14.7307 12.1329 14.5779 12.2286C14.4251 12.3244 14.2493 12.377 14.069 12.381H7.06201L7.33002 13.458H14.012C14.2979 13.458 14.5721 13.5715 14.7742 13.7737C14.9764 13.9758 15.09 14.2501 15.09 14.536C15.09 14.8219 14.9764 15.0962 14.7742 15.2983C14.5721 15.5005 14.2979 15.614 14.012 15.614L6.46997 15.6089ZM15.279 8.53101C15.1594 8.53101 15.041 8.50746 14.9305 8.46167C14.8201 8.41588 14.7197 8.34877 14.6352 8.26416C14.5507 8.17955 14.4837 8.07903 14.438 7.96851C14.3923 7.85798 14.3689 7.73958 14.369 7.62V5.66101H12.409C12.1676 5.66101 11.9362 5.56507 11.7655 5.39441C11.5948 5.22375 11.499 4.99232 11.499 4.75098V4.66101C11.499 4.41966 11.5948 4.18824 11.7655 4.01758C11.9362 3.84692 12.1676 3.75098 12.409 3.75098H14.369V1.78101C14.3689 1.66142 14.3923 1.54302 14.438 1.4325C14.4837 1.32197 14.5507 1.22145 14.6352 1.13684C14.7197 1.05223 14.8201 0.985125 14.9305 0.939331C15.041 0.893537 15.1594 0.869995 15.279 0.869995H15.369C15.6105 0.87026 15.8419 0.96639 16.0125 1.13721C16.1831 1.30802 16.279 1.53957 16.279 1.78101V3.75098H18.249C18.4904 3.75098 18.7218 3.84692 18.8925 4.01758C19.0631 4.18824 19.159 4.41966 19.159 4.66101V4.75098C19.159 4.99232 19.0631 5.22375 18.8925 5.39441C18.7218 5.56507 18.4904 5.66101 18.249 5.66101H16.279V7.62C16.279 7.86143 16.1831 8.09298 16.0125 8.26379C15.8419 8.43461 15.6105 8.53074 15.369 8.53101H15.279Z" fill="#677585"/>
</svg>
