<svg width="200" height="56" viewBox="0 0 200 56" fill="none" xmlns="http://www.w3.org/2000/svg">
<path d="M175 0H25C11.1929 0 0 11.1929 0 25V31C0 44.8071 11.1929 56 25 56H175C188.807 56 200 44.8071 200 31V25C200 11.1929 188.807 0 175 0Z" fill="#E7E9EB"/>
<path d="M53.1453 25.3698C53.0686 24.7221 52.7575 24.2192 52.2121 23.8613C51.6666 23.5033 50.9976 23.3244 50.205 23.3244C49.6254 23.3244 49.1183 23.4181 48.6837 23.6056C48.2533 23.7931 47.9166 24.0509 47.6737 24.379C47.4351 24.7072 47.3158 25.08 47.3158 25.4976C47.3158 25.8471 47.3989 26.1475 47.5651 26.3989C47.7355 26.6461 47.9528 26.8528 48.2171 27.019C48.4813 27.1809 48.7582 27.3151 49.048 27.4217C49.3378 27.5239 49.6041 27.607 49.847 27.6709L51.1766 28.0289C51.5175 28.1184 51.8967 28.242 52.3144 28.3996C52.7362 28.5573 53.1389 28.7725 53.5225 29.0452C53.9102 29.3137 54.2298 29.6589 54.4813 30.0807C54.7327 30.5026 54.8584 31.0204 54.8584 31.634C54.8584 32.3414 54.673 32.9806 54.3023 33.5516C53.9358 34.1226 53.3989 34.5765 52.6915 34.9131C51.9884 35.2498 51.134 35.4181 50.1283 35.4181C49.1908 35.4181 48.379 35.2668 47.6929 34.9643C47.0111 34.6617 46.4742 34.2398 46.0821 33.6986C45.6943 33.1574 45.4749 32.5289 45.4237 31.813H47.0601C47.1027 32.3073 47.2689 32.7164 47.5587 33.0403C47.8527 33.3599 48.2234 33.5985 48.6709 33.7562C49.1226 33.9096 49.6084 33.9863 50.1283 33.9863C50.7334 33.9863 51.2767 33.8883 51.7582 33.6922C52.2398 33.492 52.6212 33.215 52.9024 32.8613C53.1837 32.5033 53.3243 32.0857 53.3243 31.6084C53.3243 31.1738 53.2028 30.8201 52.96 30.5474C52.7171 30.2746 52.3974 30.053 52.0011 29.8826C51.6048 29.7121 51.1766 29.563 50.7163 29.4351L49.1055 28.9749C48.0828 28.6809 47.2732 28.2611 46.6766 27.7157C46.08 27.1702 45.7817 26.4565 45.7817 25.5744C45.7817 24.8414 45.9798 24.2022 46.3761 23.6567C46.7767 23.107 47.3136 22.6809 47.9869 22.3783C48.6645 22.0715 49.4209 21.9181 50.2561 21.9181C51.0999 21.9181 51.8499 22.0694 52.5061 22.3719C53.1624 22.6702 53.6823 23.0793 54.0658 23.5992C54.4536 24.1191 54.6581 24.7093 54.6794 25.3698H53.1453ZM61.3767 35.3925C60.4307 35.3925 59.6146 35.1837 58.9285 34.7661C58.2467 34.3442 57.7204 33.7562 57.3497 33.0019C56.9832 32.2434 56.8 31.3613 56.8 30.3556C56.8 29.3499 56.9832 28.4636 57.3497 27.6965C57.7204 26.9252 58.2361 26.3244 58.8966 25.894C59.5613 25.4593 60.3369 25.242 61.2233 25.242C61.7346 25.242 62.2396 25.3272 62.7382 25.4976C63.2368 25.6681 63.6906 25.9451 64.0997 26.3286C64.5088 26.7079 64.8348 27.2107 65.0777 27.8371C65.3206 28.4636 65.442 29.2349 65.442 30.1511V30.7903H57.8738V29.4863H63.9079C63.9079 28.9323 63.7971 28.438 63.5755 28.0033C63.3582 27.5687 63.0471 27.2256 62.6423 26.9742C62.2417 26.7228 61.7687 26.5971 61.2233 26.5971C60.6224 26.5971 60.1025 26.7462 59.6636 27.0445C59.2289 27.3386 58.8944 27.7221 58.6601 28.1951C58.4257 28.6681 58.3085 29.1752 58.3085 29.7164V30.5857C58.3085 31.3272 58.4363 31.9557 58.692 32.4714C58.952 32.9827 59.312 33.3726 59.7723 33.6411C60.2325 33.9053 60.7673 34.0374 61.3767 34.0374C61.773 34.0374 62.1309 33.982 62.4505 33.8712C62.7744 33.7562 63.0535 33.5857 63.2879 33.3599C63.5223 33.1297 63.7034 32.8442 63.8312 32.5033L65.2886 32.9124C65.1352 33.4067 64.8774 33.8414 64.5152 34.2164C64.153 34.5871 63.7055 34.8769 63.1728 35.0857C62.6402 35.2903 62.0414 35.3925 61.3767 35.3925ZM70.626 35.4181C70.0038 35.4181 69.4392 35.3009 68.9321 35.0665C68.425 34.8279 68.0223 34.4849 67.724 34.0374C67.4257 33.5857 67.2765 33.0403 67.2765 32.4011C67.2765 31.8386 67.3873 31.3826 67.6089 31.0332C67.8305 30.6795 68.1267 30.4025 68.4974 30.2022C68.8682 30.0019 69.2772 29.8528 69.7247 29.7547C70.1764 29.6525 70.6302 29.5715 71.0862 29.5119C71.6828 29.4351 72.1664 29.3776 72.5372 29.3393C72.9122 29.2967 73.1849 29.2263 73.3554 29.1283C73.5301 29.0303 73.6174 28.8599 73.6174 28.617V28.5658C73.6174 27.9351 73.4449 27.4451 73.0997 27.0957C72.7588 26.7462 72.241 26.5715 71.5464 26.5715C70.8262 26.5715 70.2616 26.7292 69.8525 27.0445C69.4434 27.3599 69.1558 27.6965 68.9896 28.0545L67.5578 27.5431C67.8135 26.9465 68.1544 26.482 68.5805 26.1496C69.0109 25.813 69.4797 25.5786 69.9868 25.4465C70.4981 25.3101 71.001 25.242 71.4953 25.242C71.8106 25.242 72.1728 25.2803 72.5819 25.357C72.9953 25.4295 73.3937 25.5807 73.7772 25.8109C74.165 26.041 74.4868 26.3883 74.7424 26.8528C74.9981 27.3172 75.126 27.9394 75.126 28.7192V35.188H73.6174V33.8584H73.5407C73.4385 34.0715 73.268 34.2995 73.0294 34.5424C72.7907 34.7853 72.4733 34.992 72.077 35.1624C71.6807 35.3329 71.197 35.4181 70.626 35.4181ZM70.8561 34.063C71.4527 34.063 71.9555 33.9458 72.3646 33.7114C72.778 33.4771 73.089 33.1745 73.2978 32.8038C73.5109 32.433 73.6174 32.0431 73.6174 31.634V30.2533C73.5535 30.33 73.4129 30.4003 73.1956 30.4643C72.9825 30.5239 72.7353 30.5772 72.4541 30.6241C72.1771 30.6667 71.9065 30.705 71.6423 30.7391C71.3824 30.769 71.1714 30.7945 71.0095 30.8158C70.6174 30.867 70.251 30.9501 69.9101 31.0651C69.5734 31.1759 69.3007 31.3442 69.0919 31.5701C68.8873 31.7917 68.7851 32.0942 68.7851 32.4778C68.7851 33.0019 68.9789 33.3982 69.3667 33.6667C69.7588 33.9309 70.2552 34.063 70.8561 34.063ZM77.8793 35.188V25.3698H79.3367V26.8528H79.439C79.618 26.367 79.9418 25.9728 80.4106 25.6702C80.8793 25.3677 81.4077 25.2164 81.9958 25.2164C82.1066 25.2164 82.2451 25.2185 82.4113 25.2228C82.5775 25.2271 82.7032 25.2334 82.7884 25.242V26.7761C82.7373 26.7633 82.6201 26.7441 82.4369 26.7185C82.2579 26.6887 82.0683 26.6738 81.868 26.6738C81.3907 26.6738 80.9646 26.7739 80.5896 26.9742C80.2188 27.1702 79.9248 27.443 79.7075 27.7924C79.4944 28.1376 79.3879 28.5317 79.3879 28.9749V35.188H77.8793ZM88.2664 35.3925C87.346 35.3925 86.5533 35.1752 85.8886 34.7405C85.2238 34.3059 84.7124 33.7072 84.3545 32.9444C83.9965 32.1816 83.8175 31.3101 83.8175 30.33C83.8175 29.3329 84.0008 28.4529 84.3673 27.6901C84.738 26.9231 85.2536 26.3244 85.9141 25.894C86.5789 25.4593 87.3545 25.242 88.2408 25.242C88.9312 25.242 89.5533 25.3698 90.1073 25.6255C90.6613 25.8812 91.1151 26.2391 91.4688 26.6994C91.8225 27.1596 92.042 27.6965 92.1272 28.3101H90.6187C90.5036 27.8627 90.2479 27.4664 89.8516 27.1212C89.4596 26.7718 88.9312 26.5971 88.2664 26.5971C87.6783 26.5971 87.1627 26.7505 86.7195 27.0573C86.2806 27.3599 85.9376 27.7881 85.6904 28.3421C85.4475 28.8918 85.3261 29.5374 85.3261 30.2789C85.3261 31.0374 85.4454 31.6979 85.684 32.2604C85.9269 32.8229 86.2678 33.2597 86.7068 33.5708C87.1499 33.8819 87.6698 34.0374 88.2664 34.0374C88.6585 34.0374 89.0143 33.9692 89.3339 33.8329C89.6535 33.6965 89.9241 33.5005 90.1457 33.2448C90.3673 32.9891 90.5249 32.6823 90.6187 32.3244H92.1272C92.042 32.9039 91.831 33.4259 91.4944 33.8904C91.162 34.3506 90.721 34.7171 90.1712 34.9898C89.6258 35.2583 88.9908 35.3925 88.2664 35.3925ZM95.841 29.2817V35.188H94.3325V22.0971H95.841V26.9039H95.9688C96.1989 26.3968 96.5441 25.9941 97.0043 25.6958C97.4688 25.3932 98.0867 25.242 98.858 25.242C99.5271 25.242 100.113 25.3762 100.616 25.6447C101.119 25.9089 101.509 26.3158 101.786 26.8655C102.067 27.411 102.207 28.1056 102.207 28.9494V35.188H100.699V29.0516C100.699 28.2718 100.497 27.6688 100.092 27.2427C99.6911 26.8123 99.135 26.5971 98.4234 26.5971C97.9291 26.5971 97.4859 26.7015 97.0938 26.9103C96.706 27.1191 96.3992 27.4238 96.1734 27.8244C95.9518 28.2249 95.841 28.7107 95.841 29.2817Z" fill="#11293B"/>
<path d="M18.265 35.395L22.454 30.939C21.3731 29.6223 20.7837 27.9706 20.787 26.267C20.8183 24.8681 21.2617 23.5095 22.0617 22.3615C22.8617 21.2135 23.9828 20.3271 25.2843 19.8134C26.5859 19.2997 28.0101 19.1815 29.3785 19.4737C30.747 19.7659 31.9987 20.4554 32.977 21.4558C33.9553 22.4563 34.6166 23.7232 34.878 25.0978C35.1395 26.4724 34.9894 27.8936 34.4467 29.1834C33.904 30.4731 32.9927 31.5739 31.827 32.348C30.6614 33.1221 29.2933 33.535 27.894 33.535C26.4318 33.5372 25.0063 33.0766 23.822 32.219L19.601 36.708C19.5176 36.7975 19.4171 36.8693 19.3055 36.9193C19.1938 36.9692 19.0733 36.9961 18.951 36.9985C18.8287 37.001 18.7072 36.9788 18.5936 36.9334C18.4801 36.8879 18.3768 36.8201 18.29 36.734C18.1134 36.5574 18.0121 36.3192 18.0074 36.0695C18.0027 35.8198 18.0951 35.5781 18.265 35.395ZM27.894 20.895C26.8265 20.8712 25.7761 21.1659 24.8768 21.7416C23.9776 22.3174 23.2702 23.1481 22.8451 24.1276C22.42 25.1071 22.2964 26.191 22.4901 27.2411C22.6837 28.2912 23.1859 29.2597 23.9324 30.0231C24.6789 30.7866 25.636 31.3103 26.6814 31.5274C27.7269 31.7445 28.8134 31.6453 29.8022 31.2422C30.791 30.8391 31.6372 30.1506 32.233 29.2645C32.8287 28.3783 33.1469 27.3348 33.147 26.267C33.1598 24.8596 32.6142 23.5044 31.6298 22.4984C30.6454 21.4924 29.3024 20.9177 27.895 20.9L27.894 20.895Z" fill="#677585"/>
</svg>
