<svg width="114" height="56" viewBox="0 0 114 56" fill="none" xmlns="http://www.w3.org/2000/svg">
<path d="M89 0H25C11.1929 0 0 11.1929 0 25V31C0 44.8071 11.1929 56 25 56H89C102.807 56 114 44.8071 114 31V25C114 11.1929 102.807 0 89 0Z" fill="#E7E9EB"/>
<path d="M48.5163 22.0971H50.4083L54.8572 32.9636H55.0106L59.4594 22.0971H61.3515V35.188H59.8685V25.242H59.7407L55.6498 35.188H54.218L50.1271 25.242H49.9992V35.188H48.5163V22.0971ZM68.4419 35.3925C67.4958 35.3925 66.6798 35.1837 65.9937 34.7661C65.3119 34.3442 64.7856 33.7562 64.4149 33.0019C64.0484 32.2434 63.8652 31.3613 63.8652 30.3556C63.8652 29.3499 64.0484 28.4636 64.4149 27.6965C64.7856 26.9252 65.3012 26.3244 65.9617 25.894C66.6265 25.4593 67.4021 25.242 68.2885 25.242C68.7998 25.242 69.3048 25.3272 69.8034 25.4976C70.3019 25.6681 70.7558 25.9451 71.1649 26.3286C71.574 26.7079 71.9 27.2107 72.1429 27.8371C72.3858 28.4636 72.5072 29.2349 72.5072 30.1511V30.7903H64.939V29.4863H70.9731C70.9731 28.9323 70.8623 28.438 70.6407 28.0033C70.4234 27.5687 70.1123 27.2256 69.7075 26.9742C69.3069 26.7228 68.8339 26.5971 68.2885 26.5971C67.6876 26.5971 67.1677 26.7462 66.7288 27.0445C66.2941 27.3386 65.9596 27.7221 65.7252 28.1951C65.4909 28.6681 65.3737 29.1752 65.3737 29.7164V30.5857C65.3737 31.3272 65.5015 31.9557 65.7572 32.4714C66.0171 32.9827 66.3772 33.3726 66.8375 33.6411C67.2977 33.9053 67.8325 34.0374 68.4419 34.0374C68.8382 34.0374 69.1961 33.982 69.5157 33.8712C69.8396 33.7562 70.1187 33.5857 70.3531 33.3599C70.5875 33.1297 70.7686 32.8442 70.8964 32.5033L72.3538 32.9124C72.2004 33.4067 71.9426 33.8414 71.5804 34.2164C71.2181 34.5871 70.7707 34.8769 70.238 35.0857C69.7054 35.2903 69.1066 35.3925 68.4419 35.3925ZM76.3105 29.2817V35.188H74.8019V25.3698H76.2593V26.9039H76.3872C76.6173 26.4053 76.9667 26.0047 77.4355 25.7022C77.9042 25.3954 78.5093 25.242 79.2508 25.242C79.9156 25.242 80.4973 25.3783 80.9958 25.6511C81.4944 25.9195 81.8822 26.3286 82.1592 26.8783C82.4362 27.4238 82.5747 28.1141 82.5747 28.9494V35.188H81.0662V29.0516C81.0662 28.2803 80.8659 27.6795 80.4653 27.2491C80.0647 26.8144 79.515 26.5971 78.8162 26.5971C78.3346 26.5971 77.9042 26.7015 77.525 26.9103C77.15 27.1191 76.8538 27.4238 76.6365 27.8244C76.4191 28.2249 76.3105 28.7107 76.3105 29.2817ZM91.5187 31.1738V25.3698H93.0273V35.188H91.5187V33.5261H91.4165C91.1864 34.0246 90.8284 34.4486 90.3426 34.7981C89.8568 35.1432 89.2432 35.3158 88.5017 35.3158C87.8881 35.3158 87.3426 35.1816 86.8653 34.9131C86.3881 34.6404 86.0131 34.2313 85.7403 33.6859C85.4676 33.1361 85.3312 32.4437 85.3312 31.6084V25.3698H86.8398V31.5062C86.8398 32.2221 87.0401 32.7931 87.4406 33.2192C87.8454 33.6454 88.3611 33.8584 88.9875 33.8584C89.3625 33.8584 89.7439 33.7626 90.1317 33.5708C90.5237 33.379 90.8518 33.085 91.116 32.6887C91.3845 32.2924 91.5187 31.7874 91.5187 31.1738Z" fill="#11293B"/>
<path d="M20 33C19.7348 33 19.4804 32.8946 19.2929 32.7071C19.1054 32.5196 19 32.2652 19 32C19 31.7348 19.1054 31.4804 19.2929 31.2929C19.4804 31.1054 19.7348 31 20 31H30C30.2652 31 30.5196 31.1054 30.7071 31.2929C30.8946 31.4804 31 31.7348 31 32C31 32.2652 30.8946 32.5196 30.7071 32.7071C30.5196 32.8946 30.2652 33 30 33H20ZM20 25C19.7348 25 19.4804 24.8946 19.2929 24.7071C19.1054 24.5196 19 24.2652 19 24C19 23.7348 19.1054 23.4804 19.2929 23.2929C19.4804 23.1054 19.7348 23 20 23H36C36.2652 23 36.5196 23.1054 36.7071 23.2929C36.8946 23.4804 37 23.7348 37 24C37 24.2652 36.8946 24.5196 36.7071 24.7071C36.5196 24.8946 36.2652 25 36 25H20Z" fill="#677585"/>
</svg>
