<svg width="65" height="32" viewBox="0 0 65 32" fill="none" xmlns="http://www.w3.org/2000/svg">
<path d="M33.0366 11.5263L35.974 6.42945L45.9494 5.79235L46.2984 5.16973L37.0792 4.53262L39.2458 0.811355H56.3465C61.6105 0.811355 65.493 2.69371 63.9807 8.18149C63.5299 9.86113 61.3924 14.0602 55.1105 15.8123C56.4483 15.9715 59.7637 17.434 59.1821 21.2276C58.1642 27.9607 49.4248 31.1607 44.5534 31.1607L24.3554 31.1752L23.3521 27.2801L33.9382 26.5417L34.3017 25.919L22.814 25.224L21.578 20.605L37.908 19.6494L38.2715 19.0412L8.94156 17.2168L10.3521 14.7842L41.936 12.7426L42.2995 12.1344L33.0366 11.5263ZM46.2548 12.5399L49.163 12.5254C51.1116 12.5109 53.1328 11.6276 53.8745 9.84665C54.5579 8.18149 53.6418 6.76249 52.4203 6.77697H49.5993L46.2548 12.5399ZM42.8957 18.3172L39.3912 24.3842H42.7358C44.2917 24.3842 47.0691 23.6168 47.927 21.4159C48.7268 19.3598 47.2581 18.3172 46.2402 18.3172H42.8957ZM17.4192 27.6856L15.3834 31.1462L0.871094 31.1752L2.28161 28.7426L17.4192 27.6856ZM18.4371 0.796875L30.1138 0.811355L31.0009 4.09823L17.0557 3.22945L18.4371 0.796875ZM31.6552 6.70457L32.9349 11.5263L12.9986 10.2231L14.3946 7.80502L31.6552 6.70457ZM21.5053 20.605L18.9751 24.9779L4.9136 24.1815L6.32411 21.7489L21.5053 20.605Z" fill="#CF0A2C"/>
</svg>
